<svg xmlns="http://www.w3.org/2000/svg" viewBox="0 0 754.93 662.39"><defs><style>.cls-1{fill:#1d1d1b;}.cls-2{fill:#dd7c19;}</style></defs><title>grainDeVrac_logoCouleurs</title><g id="Calque_4" data-name="Calque 4"><path class="cls-1" d="M136.43,428.75l18.87-2q14-1.46,19.89,4.39T181,450.7v32.07q0,14.42-5.74,22t-19,8.89l-19.84,1.92Zm19,76.33q6.33-.62,9.17-3.37a12.22,12.22,0,0,0,3.54-7.07,87.84,87.84,0,0,0,.7-12.92V453.45a52.15,52.15,0,0,0-.91-11.25,7.86,7.86,0,0,0-3.81-5.41q-2.9-1.58-9-1l-6.54.67v69.24Z"/><path class="cls-1" d="M192.95,422.89l33.67-3.49v9.07l-21.55,2.21v28.9l17.48-1.75v8.64l-17.48,1.74v32l21.77-2.12v8.75l-33.89,3.27Z"/><path class="cls-1" d="M136.43,594.92l14.6-1.37v3.91l-9.34.87V610.8l7.58-.71v3.72l-7.58.71v13.81l9.44-.88v3.77l-14.69,1.37Zm8.93-12.28,5-.47-5.21,9.7-2.51.23Z"/><path class="cls-1" d="M155.35,593.15l9.34-.87q4.88-.46,7.09,2t2.21,7.56a11,11,0,0,1-2.37,7.39,9.82,9.82,0,0,1-6.88,3.2l-4.14.39v17.53l-5.25.49ZM163,608.81a10.61,10.61,0,0,0,3.6-.85,3.74,3.74,0,0,0,1.84-1.94,9.67,9.67,0,0,0,.56-3.68,15.12,15.12,0,0,0-.42-4.19,2.6,2.6,0,0,0-1.65-1.75,9.73,9.73,0,0,0-3.88-.19l-2.46.23V609Z"/><path class="cls-1" d="M177.94,591l5.16-.48v37.67l-5.16.48Z"/><path class="cls-1" d="M190.77,624.6q-2.28-3.11-2.28-9v-13.3q0-6.19,2.23-9.6t7.9-3.95q5.07-.47,7.28,2.06t2.21,7.89v3l-5,.46v-2.65a25.47,25.47,0,0,0-.23-4,3.27,3.27,0,0,0-1.18-2.12,4.28,4.28,0,0,0-3-.55,5.16,5.16,0,0,0-3.18,1.21,4.85,4.85,0,0,0-1.37,2.64,23,23,0,0,0-.33,4.33V616a16.62,16.62,0,0,0,.46,4.47,3.5,3.5,0,0,0,1.51,2.18,4.93,4.93,0,0,0,2.91.42,4.69,4.69,0,0,0,3-1.16,4.5,4.5,0,0,0,1.23-2.53,27.34,27.34,0,0,0,.26-4.21v-2.79l5-.46v2.79q0,5.63-2.12,8.82t-7.37,3.69Q193.05,627.72,190.77,624.6Z"/><path class="cls-1" d="M213.14,587.75l14.6-1.37v3.91l-9.34.87v12.46l7.58-.71v3.72l-7.58.71v13.81l9.44-.88V624l-14.69,1.37Z"/><path class="cls-1" d="M232.06,586l7.58-.71q5.72-.53,8.39,1.56t2.67,7.4q0,7.26-4.65,9.22l5.35,18.38-5.07.47L241.4,605.1l-4.09.38v17.67l-5.25.49Zm7.25,15.55q3.39-.32,4.86-1.8t1.47-5a10,10,0,0,0-.51-3.6,3.08,3.08,0,0,0-1.81-1.78,8.35,8.35,0,0,0-3.67-.28l-2.32.22v12.46Z"/><path class="cls-1" d="M256.46,583.69l5.16-.48v37.67l-5.16.48Z"/><path class="cls-1" d="M267.71,582.64l14.6-1.37v3.91l-9.34.87v12.46l7.58-.71v3.72l-7.58.71v13.81l9.44-.88v3.77l-14.69,1.37Z"/><path class="cls-1" d="M297.55,579.85l5.16-.48V617l-5.16.48Z"/><path class="cls-1" d="M312.94,582.32l-6.37.6V579l17.8-1.67v3.91l-6.18.58v33.76l-5.25.49Z"/><path class="cls-1" d="M328.28,577l5.16-.48v37.67l-5.16.48Z"/><path class="cls-1" d="M339.53,575.92l3.58-.33,10.69,24v-25l4.37-.41v37.67l-3.35.31L344,587.46v25.72l-4.46.42Z"/><path class="cls-1" d="M364.08,573.63l14.6-1.37v3.91l-9.35.87v12.46l7.58-.71v3.72l-7.58.71V607l9.44-.88v3.77l-14.69,1.37ZM373,561.35l5-.47-5.21,9.7-2.51.23Z"/><path class="cls-1" d="M383,571.86l7.58-.71q5.72-.54,8.39,1.56t2.67,7.4q0,7.26-4.65,9.23l5.35,18.38-5.07.47L392.34,591l-4.09.38V609l-5.25.49Zm7.25,15.55q3.39-.32,4.86-1.8t1.46-5a10,10,0,0,0-.51-3.6,3.07,3.07,0,0,0-1.81-1.78,8.35,8.35,0,0,0-3.67-.28l-2.32.22V587.6Z"/><path class="cls-1" d="M413.07,569l5.07-.47,8,36.92-5,.47-1.72-9.33-7.67.72L410,607l-4.93.46Zm5.72,23.88-3.16-16.68-3.11,17.27Z"/><path class="cls-1" d="M430,567.46l3.58-.34,10.69,24v-25l4.37-.41v37.67l-3.35.31L434.45,579v25.72l-4.46.42Z"/><path class="cls-1" d="M458.67,568.68l-6.37.6v-3.91l17.8-1.67v3.91l-6.18.58V602l-5.25.49Z"/><path class="cls-1" d="M473.74,563.37l14.6-1.37v3.91l-9.34.87v12.46l7.58-.71v3.72L479,583v13.81l9.44-.88v3.77L473.74,601Z"/><path class="cls-1" d="M503.3,560.6l8.18-.76q6.09-.57,8.62,2t2.53,8.46v13.86q0,6.23-2.49,9.51t-8.25,3.82l-8.6.8Zm8.23,33.13a6.51,6.51,0,0,0,4-1.44,5.27,5.27,0,0,0,1.53-3.05,37.84,37.84,0,0,0,.3-5.59V571.43a22.49,22.49,0,0,0-.39-4.87,3.44,3.44,0,0,0-1.65-2.36,7,7,0,0,0-3.9-.45l-2.83.27v30Z"/><path class="cls-1" d="M527.8,558.31l14.6-1.37v3.91l-9.34.87v12.46l7.58-.71v3.72l-7.58.71v13.81l9.43-.88v3.77L527.8,596Z"/><path class="cls-1" d="M555.51,555.72l4.93-.46,5.95,27.21,5.67-28.3,4.79-.45-8.32,38.45-4.6.43Z"/><path class="cls-1" d="M580.84,553.35l7.58-.71q5.72-.53,8.39,1.56t2.67,7.4q0,7.26-4.65,9.23l5.35,18.38-5.06.47-4.93-17.21-4.09.38v17.67l-5.25.49Zm7.25,15.55q3.4-.32,4.86-1.8t1.47-5a10,10,0,0,0-.51-3.6,3.07,3.07,0,0,0-1.81-1.78,8.33,8.33,0,0,0-3.67-.28l-2.33.22v12.46Z"/><path class="cls-1" d="M610.92,550.54l5.07-.47L624,587l-5,.46-1.72-9.33-7.67.72-1.81,9.66-4.93.46Zm5.72,23.88-3.16-16.68L610.36,575Z"/><path class="cls-1" d="M629.23,583.59q-2.28-3.11-2.28-9v-13.3q0-6.19,2.23-9.6t7.9-3.95q5.07-.47,7.28,2.06t2.21,7.89v3l-5,.47V558.5a25.7,25.7,0,0,0-.23-4,3.28,3.28,0,0,0-1.19-2.12,4.29,4.29,0,0,0-3-.55,5.18,5.18,0,0,0-3.18,1.21,4.85,4.85,0,0,0-1.37,2.64,23.09,23.09,0,0,0-.33,4.33V575a16.62,16.62,0,0,0,.46,4.47,3.5,3.5,0,0,0,1.51,2.18,4.91,4.91,0,0,0,2.91.43,4.7,4.7,0,0,0,3-1.16,4.49,4.49,0,0,0,1.23-2.53,27.34,27.34,0,0,0,.26-4.21v-2.79l5-.47v2.79q0,5.63-2.12,8.82t-7.37,3.69Q631.52,586.7,629.23,583.59Z"/><path class="cls-1" d="M299.2,517.66a12.93,12.93,0,0,1-4.31-.72c-60.54-21.23-46.79-93.23-37.69-140.87,2.77-14.5,6.52-34.15,4.45-39.23-.18,0-.41,0-.69.1-2.06.82-7.34,6.58-11.21,10.79-14.09,15.36-35.37,38.56-68.73,38.56h-.31c-48.25-.21-54.71-28.66-55-29.87,0,0-3.42-7.52,4.68-10.52s10.32,7.41,10.32,7.41l0-.16c.19.72,4.94,17.67,40.06,17.83H181c26.64,0,44.44-19.41,57.45-33.59,7.53-8.21,13-14.14,19.34-15.43,7.42-1.51,12,1.11,14.44,3.57,8.58,8.48,5.16,26.36,0,53.42C263.68,423.79,252,485.16,299.43,502.3c2.48-.44,11-5.29,20.46-18.95,8-11.43,18.38-31.55,22.88-62.43,4.12-28.29,3.32-46,.63-57-9.37,6.64-15.3,10.23-20.9,10.23-10.32,0-18.1-9.55-18.1-22.21,0-13.08,8.54-22.21,20.78-22.21a30.16,30.16,0,0,1,23.52,10.53l.54.64c23.75-16.79,60.28-40.31,114.1-54.95,58.07-15.78,102.64-16.49,125.49-2,10.08,6.39,13.33,14.16,14.28,19.55,3.52,19.93-8.7,31.67-15.64,35.1a7.66,7.66,0,0,1-6.78-13.74c.91-.48,9.66-5.54,7.34-18.7-.75-4.26-4.44-7.39-7.4-9.27-7-4.43-35.76-17.23-113.27,3.84-52.44,14.26-87.95,37.52-110.79,53.74,5.36,15.54,5.79,38.23,1.36,68.69-6.86,47.13-28.52,79.47-46.93,90.62C306.69,516.35,302.74,517.66,299.2,517.66Zm26-172.66c-3.62,0-5.46,2.32-5.46,6.89,0,3.84,1.7,6.69,2.67,6.88,2.25-.49,8.24-4.61,14.34-9A14.89,14.89,0,0,0,325.17,345Z"/><path class="cls-1" d="M635.25,430.65a7.65,7.65,0,0,0-9.25,5.63c-2.12,8.69-11.4,33.88-25.77,35.56a13.59,13.59,0,0,1-11.31-3.5c-8.56-7.6-12.42-25.36-12.46-39.59-.07-28.67,13.87-39.51,18.14-42.14,5.35-3.3,9.69-3.29,11.3-2.48,3.2,1.62,5.15,3.69,5.95,6.33,1.62,5.36-1.37,12.43-2.67,14.72a7.66,7.66,0,0,0,13.26,7.67c.81-1.4,7.85-14.07,4.1-26.7-2-6.73-6.75-12.16-13.74-15.69-7.3-3.69-17.11-2.52-26.24,3.12-7.67,4.73-25.5,19.59-25.42,55.22a101,101,0,0,0,2.68,22.79c-4.28,10.05-13.8,22.84-19.93,24.92-3.65-5.73-5.78-29.59-4.63-53.23a68.93,68.93,0,0,0,.47-16.06c-1.93-19-13.81-29.3-31.75-27.5-15.4,1.55-28.89,13.53-38,33.74a117.25,117.25,0,0,0-9.8,48.09c-8,15.1-18.53,25.74-21,24.47,0,0-3.13-2.49-3.17-17.92,0-11.24,1.53-25.07,2.9-37.27,2.7-24,3.59-34-1.45-39.08-6.16-6.28-17.33-4.16-30.44-1.07.46-6.82-1.22-12.07-5-15.85-6.91-6.85-16.45-6.88-23.21-.1-7.68,7.71-10,22.55-1,31.51a12.14,12.14,0,0,0,7.51,3.38q-.51,1.08-1.08,2.21a228.06,228.06,0,0,1-14.64,24.84,7.66,7.66,0,0,0,12.58,8.74,239.54,239.54,0,0,0,15.71-26.62q3-6.06,5.05-11.37l4.61-1.09c5.46-1.3,14-3.36,18.25-3.36h0c.26,5.26-1.08,17.14-2.09,26.16-4.26,37.92-6,63.33,8.64,70.6a15.76,15.76,0,0,0,7.1,1.72c9.55,0,18.49-8.85,25.13-17.89a30.1,30.1,0,0,0,3,5.15,20.68,20.68,0,0,0,17.15,9.07q1.16,0,2.34-.12c13.4-1.37,27.28-13.52,38.25-33.39,1.44,10.37,4.06,19.66,8.7,24.1a12.9,12.9,0,0,0,9,3.72c.39,0,.78,0,1.17-.06,11-1,21.4-11.68,27.23-21.39a39.45,39.45,0,0,0,7.44,9.16,28.85,28.85,0,0,0,19.5,7.48,32.33,32.33,0,0,0,3.76-.22c27.39-3.2,37.78-42.66,38.87-47.15A7.66,7.66,0,0,0,635.25,430.65Zm-244.2-36.5a17.59,17.59,0,0,1-3.19.3,7.5,7.5,0,0,1-.31-5,7.36,7.36,0,0,1,2.74-4.45,4.08,4.08,0,0,1,.89.71C391.77,386.28,392.33,388.79,391.05,394.15Zm94.38,88.26c-1.73.18-3.6,0-5.51-2.67-6.67-9.25-6.36-36.87,4-60,3.91-8.69,12.43-23.47,25.55-24.79.89-.09,1.79-.15,2.69-.15,5.74,0,11.12,2.39,12.29,13.95A54.86,54.86,0,0,1,524,422.1c0,.1,0,.2,0,.3v.07C520,448.73,500.69,480.86,485.43,482.41Z"/><path class="cls-2" d="M420.72,354.18a7.66,7.66,0,0,1-2.77-14.8c.27-.1,27.07-10.46,56.39-19.07,55.37-16.26,71.73-12.6,79.21-8.44,7.3,4.06,8.8,9.31,8.77,13-.08,9.65-11,16.22-14.28,18a7.66,7.66,0,1,1-7.23-13.51,24.43,24.43,0,0,0,5.4-4l-.11-.06c-2.77-1.54-15.82-5.39-67.36,9.73-28.72,8.43-55,18.58-55.26,18.68A7.63,7.63,0,0,1,420.72,354.18Z"/><polygon class="cls-2" points="136.43 554.82 136.43 568.65 646.58 522.15 646.58 508.32 136.43 554.82"/><path class="cls-1" d="M498.14,75.57C480,63,446.92,62,399.73,72.4a523.18,523.18,0,0,0-64,18.72A553.6,553.6,0,0,0,265.93,124q-8,4.55-15.19,9.07c-1.35-6.52-4.13-14.05-9.75-20.15-6.87-7.45-16.34-11.23-28.16-11.23-23.88,0-45.18,14.62-61.59,42.28-13.47,22.71-20.37,48.49-22.19,63.67-2.6,21.71.55,54,18,73.65,9.57,10.79,22.53,16.49,37.48,16.49,22.49,0,38.84-18.85,49.77-38.54-2.94,19.69-9.12,41.42-21.86,55.44-8.46,9.31-18.76,14.06-31.48,14.5-34-.06-37.88-26.44-38.21-29.49a7.66,7.66,0,0,0-15.25,1.49c1.42,15,14.45,43.32,53.58,43.32h.25c16.9-.55,31.18-7.11,42.44-19.51,32.56-35.83,28.34-108.86,28.15-112a7.66,7.66,0,0,0-15.08-1.37c-4.92,19.69-23.92,70.8-52.32,70.8-10.74,0-19.25-3.71-26-11.34-13.14-14.81-16.61-41.64-14.21-61.66,3-24.68,24.7-92.45,68.57-92.45,7.43,0,12.95,2,16.85,6.24,5.33,5.74,6.63,14.32,6.9,19.34-28.75,20.71-43.28,40.76-43.28,59.82a16,16,0,0,0,2,8.37,10.26,10.26,0,0,0,9,5.13c9.87,0,21.83-14.65,30.13-26.95,3.8-5.63,15.55-24,17.3-38.3,30.3-20.37,69-37.54,89.47-45.26,31.24-11.74,118.76-37.73,148.27-17.3,6.49,4.49,9.51,10.88,9.51,20.09,0,6.64-1.69,11.47-5.17,14.77-.35.33-.71.63-1.08.92a15.69,15.69,0,1,0-26.3,15h0a15.63,15.63,0,0,0,10.47,4.56l.12,0c.67,0,16.26,1,27.19-9.24,6.7-6.26,10.1-15,10.1-26C514.24,94.16,508.67,82.86,498.14,75.57ZM209.45,196.07c2.38-9.32,9.69-18.85,19.86-28.11C223.56,178.65,215.51,189.87,209.45,196.07Z"/><path class="cls-1" d="M651.49,216.47a7.65,7.65,0,0,0-8.39,6.85c0,.14-1.67,12.5-7.87,15.7-2-5.76-3.07-21-3.79-31.43-1.73-25.19-3.52-51.24-15.34-61.14a17.67,17.67,0,0,0-13.5-4.09c-12.29,1.31-21.39,11.5-27.21,30.38-2.8-9.5-6.57-17.39-11.64-21.88a17.77,17.77,0,0,0-14.54-4.59c-20.19,2.81-26.26,33.58-32.13,63.33-2.19,11.1-4.26,21.58-6.85,29.64s-4.73,10.49-5.54,11.17c-1.76-1.6-8-9.63-14.26-46-3.87-22.57-5.68-44.4-5.7-44.62a7.66,7.66,0,0,0-15.21-.53,491.13,491.13,0,0,1-10.9,50.39c-10.82,38.77-20.08,46-23.23,47.29-3.6-5.47-5.62-28.23-4.4-50.89,1.69-13.6.26-26.65-6.28-35.46-5.5-7.41-14.1-10.83-24.22-9.63-33.31,3.94-49.95,54.83-46.43,87a7.66,7.66,0,0,0-1,1.08c-7.73,10.58-20.09,21.2-24.4,19.06,0,0-3.2-2.61-3.1-19.31.07-11.71,1.68-26,3.11-38.66,2.94-26.12,3.7-35.41-1.28-40.49-6.16-6.28-17.34-4.17-30.44-1.07.46-6.82-1.22-12.07-5-15.85-6.9-6.85-16.45-6.89-23.21-.1-7.68,7.71-10,22.55-1,31.51a12.14,12.14,0,0,0,7.51,3.38q-.51,1.08-1.08,2.21a228,228,0,0,1-14.64,24.84,7.66,7.66,0,0,0,12.58,8.74,239.87,239.87,0,0,0,15.71-26.62q3-6.07,5.05-11.38l4.61-1.09c5.46-1.3,14-3.36,18.25-3.36h0c.26,5.48-1.15,18-2.22,27.57-4.45,39.59-6.28,66.09,8.32,73.36a17.61,17.61,0,0,0,8,1.87c11.29,0,22.54-10.16,29.48-17.91,5.55,9.66,13.86,11.24,18.64,11.24a20.93,20.93,0,0,0,2.25-.12c13.89-1.51,27-12.12,37-29.55,1.45,9.2,4,17.31,8.27,21.44a13.16,13.16,0,0,0,9.19,3.82c.4,0,.8,0,1.21-.06,14.86-1.39,26.81-20,37.61-58.72.64-2.31,1.26-4.61,1.85-6.89,4,23.14,10.35,47.54,19.81,55.48a14.31,14.31,0,0,0,10.72,3.6c16.11-1.5,20.62-24.38,26.34-53.34,3.92-19.84,9.84-49.81,19.22-51.12.43-.06,1.1-.15,2.28.89,8.77,7.76,13.15,41.58,14.2,71-.18,11.33.19,19.25.22,19.83a7.66,7.66,0,0,0,15.31-.25c.06-3.84.12-12-.25-22.09.79-34,7-71.77,21.15-73.28a2.35,2.35,0,0,1,2,.6c6.82,5.72,8.67,32.64,9.9,50.46,1.7,24.73,2.91,37.9,9.9,43.69a11.37,11.37,0,0,0,8.71,2.6c16.4-1.95,22.53-19.82,23.57-30.07A7.66,7.66,0,0,0,651.49,216.47ZM281,172a19.28,19.28,0,0,1-3.2.3,7.5,7.5,0,0,1-.31-5,7.37,7.37,0,0,1,2.74-4.45,4.08,4.08,0,0,1,.89.71C281.74,164.08,282.29,166.59,281,172Zm97.46,89.59c-6.64.74-8.62-10.31-9.16-15.09-2.87-25.29,11.06-67.74,33-70.34a19,19,0,0,1,2.22-.14c4.52,0,6.59,1.92,7.89,3.68,6.42,8.66,4.65,31-4,50.87C400.52,248.5,389.06,260.39,378.47,261.54Z"/><path class="cls-2" d="M287.9,90.88a7.66,7.66,0,0,1-3.5-14.48c3.3-1.69,81.88-41.53,168-47.93C488.4,25.8,515.2,33,532,50c13.2,13.27,14.88,27.76,14.94,28.37a7.66,7.66,0,1,1-15.23,1.62c-.21-1.63-6.06-41.54-78.22-36.2-83,6.17-161.36,45.89-162.14,46.28A7.63,7.63,0,0,1,287.9,90.88Z"/></g></svg>