<?xml version="1.0" standalone="no"?>
<!DOCTYPE svg PUBLIC "-//W3C//DTD SVG 1.1//EN"
"http://www.w3.org/Graphics/SVG/1.1/DTD/svg11.dtd">

<svg width="795" height="643" view_box="0 0 795 643"
xmlns="http://www.w3.org/2000/svg"
xmlns:link="http://www.w3.org/1999/xlink">\n\n<desc>Généré par Mocodo 2.3.7 le Wed, 24 Jun 2020 01:17:34</desc>

<rect id="frame" x="0" y="0" width="795" height="643" fill="#f5f5f5" stroke="none" stroke-width="0"/>

<!-- Association come from -->
<line x1="204" y1="566" x2="204" y2="431" stroke="#bf812d" stroke-width="2"/>
<text x="209.0" y="499" fill="#01665e" font-family="Verdana" font-size="12">0,N</text>
<line x1="204" y1="279" x2="204" y2="431" stroke="#bf812d" stroke-width="2"/>
<text x="178.0" y="398" fill="#01665e" font-family="Verdana" font-size="12">1,1</text>
<g id="association-come from">
	<path d="M 230 406 a 14 14 90 0 1 14 14 V 431 h -80 V 420 a 14 14 90 0 1 14 -14" fill="#dfc27d" stroke="#dfc27d" stroke-width="0"/>
	<path d="M 244 431.0 v 11 a 14 14 90 0 1 -14 14 H 178 a 14 14 90 0 1 -14 -14 V 431.0 H 80" fill="#f6e8c3" stroke="#f6e8c3" stroke-width="0"/>
	<rect x="164" y="406" width="80" height="50" fill="none" rx="14" stroke="#bf812d" stroke-width="2"/>
	<line x1="164" y1="431" x2="244" y2="431" stroke="#bf812d" stroke-width="1"/>
	<text x="171" y="423.7" fill="#000000" font-family="Verdana" font-size="12">come from</text>
</g>

<!-- Association has one -->
<line x1="68" y1="566" x2="68" y2="431" stroke="#bf812d" stroke-width="2"/>
<text x="73.0" y="524" fill="#01665e" font-family="Verdana" font-size="12">0,N</text>
<line x1="68" y1="279" x2="68" y2="431" stroke="#bf812d" stroke-width="2"/>
<text x="73.0" y="355" fill="#01665e" font-family="Verdana" font-size="12">1,1</text>
<g id="association-has one">
	<path d="M 85 406 a 14 14 90 0 1 14 14 V 431 h -62 V 420 a 14 14 90 0 1 14 -14" fill="#dfc27d" stroke="#dfc27d" stroke-width="0"/>
	<path d="M 99 431.0 v 11 a 14 14 90 0 1 -14 14 H 51 a 14 14 90 0 1 -14 -14 V 431.0 H 62" fill="#f6e8c3" stroke="#f6e8c3" stroke-width="0"/>
	<rect x="37" y="406" width="62" height="50" fill="none" rx="14" stroke="#bf812d" stroke-width="2"/>
	<line x1="37" y1="431" x2="99" y2="431" stroke="#bf812d" stroke-width="1"/>
	<text x="44" y="423.7" fill="#000000" font-family="Verdana" font-size="12">has one</text>
</g>

<!-- Association is in favorite -->
<line x1="474" y1="431" x2="342" y2="431" stroke="#bf812d" stroke-width="2"/>
<text x="392" y="448.0" fill="#01665e" font-family="Verdana" font-size="12">0,N</text>
<line x1="204" y1="279" x2="342" y2="431" stroke="#bf812d" stroke-width="2"/>
<text x="249" y="321.646778585" fill="#01665e" font-family="Verdana" font-size="12">0,N</text>
<g id="association-is in favorite">
	<path d="M 373 406 a 14 14 90 0 1 14 14 V 431 h -90 V 420 a 14 14 90 0 1 14 -14" fill="#dfc27d" stroke="#dfc27d" stroke-width="0"/>
	<path d="M 387 431.0 v 11 a 14 14 90 0 1 -14 14 H 311 a 14 14 90 0 1 -14 -14 V 431.0 H 90" fill="#f6e8c3" stroke="#f6e8c3" stroke-width="0"/>
	<rect x="297" y="406" width="90" height="50" fill="none" rx="14" stroke="#bf812d" stroke-width="2"/>
	<line x1="297" y1="431" x2="387" y2="431" stroke="#bf812d" stroke-width="1"/>
	<text x="304" y="423.7" fill="#000000" font-family="Verdana" font-size="12">is in favorite</text>
</g>

<!-- Association has a level Difficulty -->
<line x1="630" y1="566" x2="630" y2="431" stroke="#bf812d" stroke-width="2"/>
<text x="635.0" y="524" fill="#01665e" font-family="Verdana" font-size="12">0,N</text>
<line x1="474" y1="431" x2="630" y2="431" stroke="#bf812d" stroke-width="2"/>
<text x="534" y="448.0" fill="#01665e" font-family="Verdana" font-size="12">1,1</text>
<g id="association-has a level Difficulty">
	<path d="M 685 406 a 14 14 90 0 1 14 14 V 431 h -138 V 420 a 14 14 90 0 1 14 -14" fill="#dfc27d" stroke="#dfc27d" stroke-width="0"/>
	<path d="M 699 431.0 v 11 a 14 14 90 0 1 -14 14 H 575 a 14 14 90 0 1 -14 -14 V 431.0 H 138" fill="#f6e8c3" stroke="#f6e8c3" stroke-width="0"/>
	<rect x="561" y="406" width="138" height="50" fill="none" rx="14" stroke="#bf812d" stroke-width="2"/>
	<line x1="561" y1="431" x2="699" y2="431" stroke="#bf812d" stroke-width="1"/>
	<text x="568" y="423.7" fill="#000000" font-family="Verdana" font-size="12">has a level Difficulty</text>
</g>

<!-- Association has -->
<line x1="474" y1="431" x2="474" y2="566" stroke="#bf812d" stroke-width="2"/>
<text x="479.0" y="524" fill="#01665e" font-family="Verdana" font-size="12">1,1</text>
<line x1="342" y1="566" x2="474" y2="566" stroke="#bf812d" stroke-width="2"/>
<text x="408" y="583.0" fill="#01665e" font-family="Verdana" font-size="12">0,N</text>
<g id="association-has">
	<path d="M 478 541 a 14 14 90 0 1 14 14 V 566 h -36 V 555 a 14 14 90 0 1 14 -14" fill="#dfc27d" stroke="#dfc27d" stroke-width="0"/>
	<path d="M 492 566.0 v 11 a 14 14 90 0 1 -14 14 H 470 a 14 14 90 0 1 -14 -14 V 566.0 H 36" fill="#f6e8c3" stroke="#f6e8c3" stroke-width="0"/>
	<rect x="456" y="541" width="36" height="50" fill="none" rx="14" stroke="#bf812d" stroke-width="2"/>
	<line x1="456" y1="566" x2="492" y2="566" stroke="#bf812d" stroke-width="1"/>
	<text x="463" y="558.7" fill="#000000" font-family="Verdana" font-size="12">has</text>
</g>

<!-- Association has many -->
<line x1="744" y1="279" x2="630" y2="279" stroke="#bf812d" stroke-width="2"/>
<text x="675" y="296.0" fill="#01665e" font-family="Verdana" font-size="12">1,N</text>
<line x1="474" y1="431" x2="630" y2="279" stroke="#bf812d" stroke-width="2"/>
<text x="534" y="387.469114344" fill="#01665e" font-family="Verdana" font-size="12">1,1</text>
<g id="association-has many">
	<path d="M 653 254 a 14 14 90 0 1 14 14 V 279 h -74 V 268 a 14 14 90 0 1 14 -14" fill="#dfc27d" stroke="#dfc27d" stroke-width="0"/>
	<path d="M 667 279.0 v 11 a 14 14 90 0 1 -14 14 H 607 a 14 14 90 0 1 -14 -14 V 279.0 H 74" fill="#f6e8c3" stroke="#f6e8c3" stroke-width="0"/>
	<rect x="593" y="254" width="74" height="50" fill="none" rx="14" stroke="#bf812d" stroke-width="2"/>
	<line x1="593" y1="279" x2="667" y2="279" stroke="#bf812d" stroke-width="1"/>
	<text x="600" y="271.7" fill="#000000" font-family="Verdana" font-size="12">has many</text>
</g>

<!-- Association has in his cart -->
<line x1="342" y1="119" x2="204" y2="119" stroke="#bf812d" stroke-width="2"/>
<text x="260" y="136.0" fill="#01665e" font-family="Verdana" font-size="12">0,N</text>
<line x1="204" y1="279" x2="204" y2="119" stroke="#bf812d" stroke-width="2"/>
<text x="209.0" y="169" fill="#01665e" font-family="Verdana" font-size="12">0,N</text>
<g id="association-has in his cart">
	<path d="M 240 94 a 14 14 90 0 1 14 14 V 119 h -100 V 108 a 14 14 90 0 1 14 -14" fill="#dfc27d" stroke="#dfc27d" stroke-width="0"/>
	<path d="M 254 119.0 v 11 a 14 14 90 0 1 -14 14 H 168 a 14 14 90 0 1 -14 -14 V 119.0 H 100" fill="#f6e8c3" stroke="#f6e8c3" stroke-width="0"/>
	<rect x="154" y="94" width="100" height="50" fill="none" rx="14" stroke="#bf812d" stroke-width="2"/>
	<line x1="154" y1="119" x2="254" y2="119" stroke="#bf812d" stroke-width="1"/>
	<text x="161" y="111.7" fill="#000000" font-family="Verdana" font-size="12">has in his cart</text>
</g>

<!-- Association is produced by -->
<line x1="204" y1="279" x2="342" y2="279" stroke="#bf812d" stroke-width="2"/>
<text x="249" y="271.0" fill="#01665e" font-family="Verdana" font-size="12">1,N</text>
<line x1="342" y1="119" x2="342" y2="279" stroke="#bf812d" stroke-width="2"/>
<text x="316.0" y="246" fill="#01665e" font-family="Verdana" font-size="12">1,1</text>
<g id="association-is produced by">
	<path d="M 380 254 a 14 14 90 0 1 14 14 V 279 h -104 V 268 a 14 14 90 0 1 14 -14" fill="#dfc27d" stroke="#dfc27d" stroke-width="0"/>
	<path d="M 394 279.0 v 11 a 14 14 90 0 1 -14 14 H 304 a 14 14 90 0 1 -14 -14 V 279.0 H 104" fill="#f6e8c3" stroke="#f6e8c3" stroke-width="0"/>
	<rect x="290" y="254" width="104" height="50" fill="none" rx="14" stroke="#bf812d" stroke-width="2"/>
	<line x1="290" y1="279" x2="394" y2="279" stroke="#bf812d" stroke-width="1"/>
	<text x="297" y="271.7" fill="#000000" font-family="Verdana" font-size="12">is produced by</text>
</g>

<!-- Association admin has -->
<line x1="68" y1="279" x2="68" y2="119" stroke="#bf812d" stroke-width="2"/>
<text x="73.0" y="212" fill="#01665e" font-family="Verdana" font-size="12">1,1</text>
<line x1="204" y1="279" x2="68" y2="119" stroke="#bf812d" stroke-width="2"/>
<text x="137" y="242.678327408" fill="#01665e" font-family="Verdana" font-size="12">0,N</text>
<g id="association-admin has">
	<path d="M 93 94 a 14 14 90 0 1 14 14 V 119 h -78 V 108 a 14 14 90 0 1 14 -14" fill="#dfc27d" stroke="#dfc27d" stroke-width="0"/>
	<path d="M 107 119.0 v 11 a 14 14 90 0 1 -14 14 H 43 a 14 14 90 0 1 -14 -14 V 119.0 H 78" fill="#f6e8c3" stroke="#f6e8c3" stroke-width="0"/>
	<rect x="29" y="94" width="78" height="50" fill="none" rx="14" stroke="#bf812d" stroke-width="2"/>
	<line x1="29" y1="119" x2="107" y2="119" stroke="#bf812d" stroke-width="1"/>
	<text x="36" y="111.7" fill="#000000" font-family="Verdana" font-size="12">admin has</text>
</g>

<!-- Association is composed -->
<line x1="474" y1="431" x2="474" y2="279" stroke="#bf812d" stroke-width="2"/>
<text x="447.0" y="347" fill="#01665e" font-family="Verdana" font-size="12">1,N</text>
<line x1="342" y1="119" x2="474" y2="279" stroke="#bf812d" stroke-width="2"/>
<text x="402" y="183.783150087" fill="#01665e" font-family="Verdana" font-size="12">0,N</text>
<g id="association-is composed">
	<path d="M 505 254 a 14 14 90 0 1 14 14 V 279 h -90 V 268 a 14 14 90 0 1 14 -14" fill="#dfc27d" stroke="#dfc27d" stroke-width="0"/>
	<path d="M 519 279.0 v 11 a 14 14 90 0 1 -14 14 H 443 a 14 14 90 0 1 -14 -14 V 279.0 H 90" fill="#f6e8c3" stroke="#f6e8c3" stroke-width="0"/>
	<rect x="429" y="254" width="90" height="50" fill="none" rx="14" stroke="#bf812d" stroke-width="2"/>
	<line x1="429" y1="279" x2="519" y2="279" stroke="#bf812d" stroke-width="1"/>
	<text x="436" y="271.7" fill="#000000" font-family="Verdana" font-size="12">is composed</text>
</g>

<!-- Entity CITY -->
<g id="entity-CITY">
	<g id="frame-CITY">
		<rect x="159" y="507" width="90" height="25" fill="#80cdc1" stroke="#80cdc1" stroke-width="0"/>
		<rect x="159" y="532.0" width="90" height="93" fill="#c7eae5" stroke="#c7eae5" stroke-width="0"/>
		<rect x="159" y="507" width="90" height="118" fill="none" stroke="#35978f" stroke-width="2"/>
		<line x1="159" y1="532" x2="249" y2="532" stroke="#35978f" stroke-width="1"/>
	</g>
	<text x="189" y="524.7" fill="#000000" font-family="Verdana" font-size="12">CITY</text>
	<text x="164" y="549.7" fill="#000000" font-family="Verdana" font-size="12">id</text>
	<line x1="164" y1="552" x2="176" y2="552" stroke="#000000" stroke-width="1"/>
	<text x="164" y="566.8" fill="#000000" font-family="Verdana" font-size="12">name</text>
	<text x="164" y="583.8" fill="#000000" font-family="Verdana" font-size="12">departement</text>
	<text x="164" y="600.8" fill="#000000" font-family="Verdana" font-size="12">created_at</text>
	<text x="164" y="617.8" fill="#000000" font-family="Verdana" font-size="12">updated_at</text>
</g>

<!-- Entity PRODUCT -->
<g id="entity-PRODUCT">
	<g id="frame-PRODUCT">
		<rect x="287" y="9" width="110" height="25" fill="#80cdc1" stroke="#80cdc1" stroke-width="0"/>
		<rect x="287" y="34.0" width="110" height="195" fill="#c7eae5" stroke="#c7eae5" stroke-width="0"/>
		<rect x="287" y="9" width="110" height="220" fill="none" stroke="#35978f" stroke-width="2"/>
		<line x1="287" y1="34" x2="397" y2="34" stroke="#35978f" stroke-width="1"/>
	</g>
	<text x="312" y="26.7" fill="#000000" font-family="Verdana" font-size="12">PRODUCT</text>
	<text x="292" y="51.7" fill="#000000" font-family="Verdana" font-size="12">id</text>
	<line x1="292" y1="54" x2="304" y2="54" stroke="#000000" stroke-width="1"/>
	<text x="292" y="68.7" fill="#000000" font-family="Verdana" font-size="12">marketable</text>
	<text x="292" y="85.7" fill="#000000" font-family="Verdana" font-size="12">title</text>
	<text x="292" y="102.7" fill="#000000" font-family="Verdana" font-size="12">shortDescription</text>
	<text x="292" y="119.8" fill="#000000" font-family="Verdana" font-size="12">description</text>
	<text x="292" y="136.8" fill="#000000" font-family="Verdana" font-size="12">bio</text>
	<text x="292" y="153.8" fill="#000000" font-family="Verdana" font-size="12">price</text>
	<text x="292" y="170.8" fill="#000000" font-family="Verdana" font-size="12">availability</text>
	<text x="292" y="187.8" fill="#000000" font-family="Verdana" font-size="12">image</text>
	<text x="292" y="204.8" fill="#000000" font-family="Verdana" font-size="12">created_at</text>
	<text x="292" y="221.8" fill="#000000" font-family="Verdana" font-size="12">updated_at</text>
</g>

<!-- Entity INDICATIVEPRICE -->
<g id="entity-INDICATIVEPRICE">
	<g id="frame-INDICATIVEPRICE">
		<rect x="281" y="532" width="122" height="25" fill="#80cdc1" stroke="#80cdc1" stroke-width="0"/>
		<rect x="281" y="557.0" width="122" height="43" fill="#c7eae5" stroke="#c7eae5" stroke-width="0"/>
		<rect x="281" y="532" width="122" height="68" fill="none" stroke="#35978f" stroke-width="2"/>
		<line x1="281" y1="557" x2="403" y2="557" stroke="#35978f" stroke-width="1"/>
	</g>
	<text x="286" y="549.7" fill="#000000" font-family="Verdana" font-size="12">INDICATIVEPRICE</text>
	<text x="286" y="574.8" fill="#000000" font-family="Verdana" font-size="12">id</text>
	<line x1="286" y1="577" x2="298" y2="577" stroke="#000000" stroke-width="1"/>
	<text x="286" y="591.8" fill="#000000" font-family="Verdana" font-size="12">level</text>
</g>

<!-- Entity RECIPE -->
<g id="entity-RECIPE">
	<g id="frame-RECIPE">
		<rect x="419" y="355" width="110" height="25" fill="#80cdc1" stroke="#80cdc1" stroke-width="0"/>
		<rect x="419" y="380.0" width="110" height="127" fill="#c7eae5" stroke="#c7eae5" stroke-width="0"/>
		<rect x="419" y="355" width="110" height="152" fill="none" stroke="#35978f" stroke-width="2"/>
		<line x1="419" y1="380" x2="529" y2="380" stroke="#35978f" stroke-width="1"/>
	</g>
	<text x="451" y="372.7" fill="#000000" font-family="Verdana" font-size="12">RECIPE</text>
	<text x="424" y="397.7" fill="#000000" font-family="Verdana" font-size="12">id</text>
	<line x1="424" y1="400" x2="436" y2="400" stroke="#000000" stroke-width="1"/>
	<text x="424" y="414.7" fill="#000000" font-family="Verdana" font-size="12">title</text>
	<text x="424" y="431.8" fill="#000000" font-family="Verdana" font-size="12">shortDescription</text>
	<text x="424" y="448.8" fill="#000000" font-family="Verdana" font-size="12">description</text>
	<text x="424" y="465.8" fill="#000000" font-family="Verdana" font-size="12">saison</text>
	<text x="424" y="482.8" fill="#000000" font-family="Verdana" font-size="12">created_at</text>
	<text x="424" y="499.8" fill="#000000" font-family="Verdana" font-size="12">updated_at</text>
</g>

<!-- Entity DIFFICULTY -->
<g id="entity-DIFFICULTY">
	<g id="frame-DIFFICULTY">
		<rect x="588" y="532" width="84" height="25" fill="#80cdc1" stroke="#80cdc1" stroke-width="0"/>
		<rect x="588" y="557.0" width="84" height="43" fill="#c7eae5" stroke="#c7eae5" stroke-width="0"/>
		<rect x="588" y="532" width="84" height="68" fill="none" stroke="#35978f" stroke-width="2"/>
		<line x1="588" y1="557" x2="672" y2="557" stroke="#35978f" stroke-width="1"/>
	</g>
	<text x="593" y="549.7" fill="#000000" font-family="Verdana" font-size="12">DIFFICULTY</text>
	<text x="593" y="574.8" fill="#000000" font-family="Verdana" font-size="12">id</text>
	<line x1="593" y1="577" x2="605" y2="577" stroke="#000000" stroke-width="1"/>
	<text x="593" y="591.8" fill="#000000" font-family="Verdana" font-size="12">level</text>
</g>

<!-- Entity STEP -->
<g id="entity-STEP">
	<g id="frame-STEP">
		<rect x="702" y="228" width="84" height="25" fill="#80cdc1" stroke="#80cdc1" stroke-width="0"/>
		<rect x="702" y="253.0" width="84" height="77" fill="#c7eae5" stroke="#c7eae5" stroke-width="0"/>
		<rect x="702" y="228" width="84" height="102" fill="none" stroke="#35978f" stroke-width="2"/>
		<line x1="702" y1="253" x2="786" y2="253" stroke="#35978f" stroke-width="1"/>
	</g>
	<text x="728" y="245.7" fill="#000000" font-family="Verdana" font-size="12">STEP</text>
	<text x="707" y="270.7" fill="#000000" font-family="Verdana" font-size="12">id</text>
	<line x1="707" y1="273" x2="719" y2="273" stroke="#000000" stroke-width="1"/>
	<text x="707" y="287.8" fill="#000000" font-family="Verdana" font-size="12">stepContent</text>
	<text x="707" y="304.8" fill="#000000" font-family="Verdana" font-size="12">created_at</text>
	<text x="707" y="321.8" fill="#000000" font-family="Verdana" font-size="12">updated_at</text>
</g>

<!-- Entity USER -->
<g id="entity-USER">
	<g id="frame-USER">
		<rect x="164" y="177" width="80" height="25" fill="#80cdc1" stroke="#80cdc1" stroke-width="0"/>
		<rect x="164" y="202.0" width="80" height="179" fill="#c7eae5" stroke="#c7eae5" stroke-width="0"/>
		<rect x="164" y="177" width="80" height="204" fill="none" stroke="#35978f" stroke-width="2"/>
		<line x1="164" y1="202" x2="244" y2="202" stroke="#35978f" stroke-width="1"/>
	</g>
	<text x="187" y="194.7" fill="#000000" font-family="Verdana" font-size="12">USER</text>
	<text x="169" y="219.7" fill="#000000" font-family="Verdana" font-size="12">id</text>
	<line x1="169" y1="222" x2="181" y2="222" stroke="#000000" stroke-width="1"/>
	<text x="169" y="236.7" fill="#000000" font-family="Verdana" font-size="12">name</text>
	<text x="169" y="253.7" fill="#000000" font-family="Verdana" font-size="12">firstName</text>
	<text x="169" y="270.7" fill="#000000" font-family="Verdana" font-size="12">adress</text>
	<text x="169" y="287.8" fill="#000000" font-family="Verdana" font-size="12">country</text>
	<text x="169" y="304.8" fill="#000000" font-family="Verdana" font-size="12">phone</text>
	<text x="169" y="321.8" fill="#000000" font-family="Verdana" font-size="12">mail</text>
	<text x="169" y="338.8" fill="#000000" font-family="Verdana" font-size="12">mute</text>
	<text x="169" y="355.8" fill="#000000" font-family="Verdana" font-size="12">created_at</text>
	<text x="169" y="372.8" fill="#000000" font-family="Verdana" font-size="12">updated_at</text>
</g>

<!-- Entity MESSAGESTATUS -->
<g id="entity-MESSAGESTATUS">
	<g id="frame-MESSAGESTATUS">
		<rect x="9" y="532" width="118" height="25" fill="#80cdc1" stroke="#80cdc1" stroke-width="0"/>
		<rect x="9" y="557.0" width="118" height="43" fill="#c7eae5" stroke="#c7eae5" stroke-width="0"/>
		<rect x="9" y="532" width="118" height="68" fill="none" stroke="#35978f" stroke-width="2"/>
		<line x1="9" y1="557" x2="127" y2="557" stroke="#35978f" stroke-width="1"/>
	</g>
	<text x="14" y="549.7" fill="#000000" font-family="Verdana" font-size="12">MESSAGESTATUS</text>
	<text x="14" y="574.8" fill="#000000" font-family="Verdana" font-size="12">id</text>
	<line x1="14" y1="577" x2="26" y2="577" stroke="#000000" stroke-width="1"/>
	<text x="14" y="591.8" fill="#000000" font-family="Verdana" font-size="12">status</text>
</g>

<!-- Entity DATE -->
<g id="entity-DATE">
	<g id="frame-DATE">
		<rect x="704" y="498" width="80" height="25" fill="#80cdc1" stroke="#80cdc1" stroke-width="0"/>
		<rect x="704" y="523.0" width="80" height="111" fill="#c7eae5" stroke="#c7eae5" stroke-width="0"/>
		<rect x="704" y="498" width="80" height="136" fill="none" stroke="#35978f" stroke-width="2"/>
		<line x1="704" y1="523" x2="784" y2="523" stroke="#35978f" stroke-width="1"/>
	</g>
	<text x="727" y="515.7" fill="#000000" font-family="Verdana" font-size="12">DATE</text>
	<text x="709" y="540.7" fill="#000000" font-family="Verdana" font-size="12">id</text>
	<line x1="709" y1="543" x2="721" y2="543" stroke="#000000" stroke-width="1"/>
	<text x="709" y="557.7" fill="#000000" font-family="Verdana" font-size="12">date</text>
	<text x="709" y="574.8" fill="#000000" font-family="Verdana" font-size="12">startHour</text>
	<text x="709" y="591.8" fill="#000000" font-family="Verdana" font-size="12">endHour</text>
	<text x="709" y="608.8" fill="#000000" font-family="Verdana" font-size="12">created_at</text>
	<text x="709" y="625.8" fill="#000000" font-family="Verdana" font-size="12">updated_at</text>
</g>

<!-- Entity DATAPAGE -->
<g id="entity-DATAPAGE">
	<g id="frame-DATAPAGE">
		<rect x="590" y="43" width="80" height="25" fill="#80cdc1" stroke="#80cdc1" stroke-width="0"/>
		<rect x="590" y="68.0" width="80" height="127" fill="#c7eae5" stroke="#c7eae5" stroke-width="0"/>
		<rect x="590" y="43" width="80" height="152" fill="none" stroke="#35978f" stroke-width="2"/>
		<line x1="590" y1="68" x2="670" y2="68" stroke="#35978f" stroke-width="1"/>
	</g>
	<text x="597" y="60.7" fill="#000000" font-family="Verdana" font-size="12">DATAPAGE</text>
	<text x="595" y="85.7" fill="#000000" font-family="Verdana" font-size="12">id</text>
	<line x1="595" y1="88" x2="607" y2="88" stroke="#000000" stroke-width="1"/>
	<text x="595" y="102.7" fill="#000000" font-family="Verdana" font-size="12">type</text>
	<text x="595" y="119.8" fill="#000000" font-family="Verdana" font-size="12">title</text>
	<text x="595" y="136.8" fill="#000000" font-family="Verdana" font-size="12">content</text>
	<text x="595" y="153.8" fill="#000000" font-family="Verdana" font-size="12">image</text>
	<text x="595" y="170.8" fill="#000000" font-family="Verdana" font-size="12">created_at</text>
	<text x="595" y="187.8" fill="#000000" font-family="Verdana" font-size="12">updated_at</text>
</g>

<!-- Entity MESSAGE -->
<g id="entity-MESSAGE">
	<g id="frame-MESSAGE">
		<rect x="28" y="220" width="80" height="25" fill="#80cdc1" stroke="#80cdc1" stroke-width="0"/>
		<rect x="28" y="245.0" width="80" height="93" fill="#c7eae5" stroke="#c7eae5" stroke-width="0"/>
		<rect x="28" y="220" width="80" height="118" fill="none" stroke="#35978f" stroke-width="2"/>
		<line x1="28" y1="245" x2="108" y2="245" stroke="#35978f" stroke-width="1"/>
	</g>
	<text x="38" y="237.7" fill="#000000" font-family="Verdana" font-size="12">MESSAGE</text>
	<text x="33" y="262.7" fill="#000000" font-family="Verdana" font-size="12">id</text>
	<line x1="33" y1="265" x2="45" y2="265" stroke="#000000" stroke-width="1"/>
	<text x="33" y="279.8" fill="#000000" font-family="Verdana" font-size="12">title</text>
	<text x="33" y="296.8" fill="#000000" font-family="Verdana" font-size="12">content</text>
	<text x="33" y="313.8" fill="#000000" font-family="Verdana" font-size="12">created_at</text>
	<text x="33" y="330.8" fill="#000000" font-family="Verdana" font-size="12">updated_at</text>
</g>
</svg>