<?xml version="1.0" standalone="no"?>
<!DOCTYPE svg PUBLIC "-//W3C//DTD SVG 1.1//EN"
"http://www.w3.org/Graphics/SVG/1.1/DTD/svg11.dtd">

<svg width="832" height="643" view_box="0 0 832 643"
xmlns="http://www.w3.org/2000/svg"
xmlns:link="http://www.w3.org/1999/xlink">\n\n<desc>Généré par Mocodo 2.3.7 le Thu, 25 Jun 2020 06:39:49</desc>

<rect id="frame" x="0" y="0" width="832" height="643" fill="#f5f5f5" stroke="none" stroke-width="0"/>

<!-- Association come from -->
<line x1="204" y1="212" x2="204" y2="364" stroke="#35978f" stroke-width="2"/>
<text x="209.0" y="288" fill="#8c510a" font-family="Verdana" font-size="12">0,N</text>
<line x1="327" y1="364" x2="204" y2="364" stroke="#35978f" stroke-width="2"/>
<text x="261" y="356.0" fill="#8c510a" font-family="Verdana" font-size="12">1,1</text>
<g id="association-come from">
	<path d="M 230 339 a 14 14 90 0 1 14 14 V 364 h -80 V 353 a 14 14 90 0 1 14 -14" fill="#80cdc1" stroke="#80cdc1" stroke-width="0"/>
	<path d="M 244 364.0 v 11 a 14 14 90 0 1 -14 14 H 178 a 14 14 90 0 1 -14 -14 V 364.0 H 80" fill="#c7eae5" stroke="#c7eae5" stroke-width="0"/>
	<rect x="164" y="339" width="80" height="50" fill="none" rx="14" stroke="#35978f" stroke-width="2"/>
	<line x1="164" y1="364" x2="244" y2="364" stroke="#35978f" stroke-width="1"/>
	<text x="171" y="356.7" fill="#000000" font-family="Verdana" font-size="12">come from</text>
</g>

<!-- Association has one -->
<line x1="68" y1="212" x2="68" y2="364" stroke="#35978f" stroke-width="2"/>
<text x="73.0" y="263" fill="#8c510a" font-family="Verdana" font-size="12">0,N</text>
<line x1="68" y1="524" x2="68" y2="364" stroke="#35978f" stroke-width="2"/>
<text x="73.0" y="457" fill="#8c510a" font-family="Verdana" font-size="12">1,1</text>
<g id="association-has one">
	<path d="M 85 339 a 14 14 90 0 1 14 14 V 364 h -62 V 353 a 14 14 90 0 1 14 -14" fill="#80cdc1" stroke="#80cdc1" stroke-width="0"/>
	<path d="M 99 364.0 v 11 a 14 14 90 0 1 -14 14 H 51 a 14 14 90 0 1 -14 -14 V 364.0 H 62" fill="#c7eae5" stroke="#c7eae5" stroke-width="0"/>
	<rect x="37" y="339" width="62" height="50" fill="none" rx="14" stroke="#35978f" stroke-width="2"/>
	<line x1="37" y1="364" x2="99" y2="364" stroke="#35978f" stroke-width="1"/>
	<text x="44" y="356.7" fill="#000000" font-family="Verdana" font-size="12">has one</text>
</g>

<!-- Association is composed -->
<line x1="598" y1="212" x2="598" y2="364" stroke="#35978f" stroke-width="2"/>
<text x="571.0" y="305" fill="#8c510a" font-family="Verdana" font-size="12">1,N</text>
<line x1="466" y1="524" x2="598" y2="364" stroke="#35978f" stroke-width="2"/>
<text x="526" y="468.216849913" fill="#8c510a" font-family="Verdana" font-size="12">0,N</text>
<g id="association-is composed">
	<path d="M 629 339 a 14 14 90 0 1 14 14 V 364 h -90 V 353 a 14 14 90 0 1 14 -14" fill="#80cdc1" stroke="#80cdc1" stroke-width="0"/>
	<path d="M 643 364.0 v 11 a 14 14 90 0 1 -14 14 H 567 a 14 14 90 0 1 -14 -14 V 364.0 H 90" fill="#c7eae5" stroke="#c7eae5" stroke-width="0"/>
	<rect x="553" y="339" width="90" height="50" fill="none" rx="14" stroke="#35978f" stroke-width="2"/>
	<line x1="553" y1="364" x2="643" y2="364" stroke="#35978f" stroke-width="1"/>
	<text x="560" y="356.7" fill="#000000" font-family="Verdana" font-size="12">is composed</text>
</g>

<!-- Association is produced by -->
<line x1="327" y1="364" x2="327" y2="524" stroke="#35978f" stroke-width="2"/>
<text x="332.0" y="483" fill="#8c510a" font-family="Verdana" font-size="12">0,N</text>
<line x1="466" y1="524" x2="327" y2="524" stroke="#35978f" stroke-width="2"/>
<text x="385" y="541.0" fill="#8c510a" font-family="Verdana" font-size="12">1,1</text>
<g id="association-is produced by">
	<path d="M 365 499 a 14 14 90 0 1 14 14 V 524 h -104 V 513 a 14 14 90 0 1 14 -14" fill="#80cdc1" stroke="#80cdc1" stroke-width="0"/>
	<path d="M 379 524.0 v 11 a 14 14 90 0 1 -14 14 H 289 a 14 14 90 0 1 -14 -14 V 524.0 H 104" fill="#c7eae5" stroke="#c7eae5" stroke-width="0"/>
	<rect x="275" y="499" width="104" height="50" fill="none" rx="14" stroke="#35978f" stroke-width="2"/>
	<line x1="275" y1="524" x2="379" y2="524" stroke="#35978f" stroke-width="1"/>
	<text x="282" y="516.7" fill="#000000" font-family="Verdana" font-size="12">is produced by</text>
</g>

<!-- Association has a level Difficulty -->
<line x1="754" y1="77" x2="754" y2="212" stroke="#35978f" stroke-width="2"/>
<text x="759.0" y="128" fill="#8c510a" font-family="Verdana" font-size="12">0,N</text>
<line x1="598" y1="212" x2="754" y2="212" stroke="#35978f" stroke-width="2"/>
<text x="658" y="204.0" fill="#8c510a" font-family="Verdana" font-size="12">1,1</text>
<g id="association-has a level Difficulty">
	<path d="M 809 187 a 14 14 90 0 1 14 14 V 212 h -138 V 201 a 14 14 90 0 1 14 -14" fill="#80cdc1" stroke="#80cdc1" stroke-width="0"/>
	<path d="M 823 212.0 v 11 a 14 14 90 0 1 -14 14 H 699 a 14 14 90 0 1 -14 -14 V 212.0 H 138" fill="#c7eae5" stroke="#c7eae5" stroke-width="0"/>
	<rect x="685" y="187" width="138" height="50" fill="none" rx="14" stroke="#35978f" stroke-width="2"/>
	<line x1="685" y1="212" x2="823" y2="212" stroke="#35978f" stroke-width="1"/>
	<text x="692" y="204.7" fill="#000000" font-family="Verdana" font-size="12">has a level Difficulty</text>
</g>

<!-- Association is -->
<line x1="327" y1="77" x2="327" y2="212" stroke="#35978f" stroke-width="2"/>
<text x="332.0" y="128" fill="#8c510a" font-family="Verdana" font-size="12">0,N</text>
<line x1="327" y1="364" x2="327" y2="212" stroke="#35978f" stroke-width="2"/>
<text x="301.0" y="254" fill="#8c510a" font-family="Verdana" font-size="12">1,1</text>
<g id="association-is">
	<path d="M 326 187 a 14 14 90 0 1 14 14 V 212 h -26 V 201 a 14 14 90 0 1 14 -14" fill="#80cdc1" stroke="#80cdc1" stroke-width="0"/>
	<path d="M 340 212.0 v 11 a 14 14 90 0 1 -14 14 H 328 a 14 14 90 0 1 -14 -14 V 212.0 H 26" fill="#c7eae5" stroke="#c7eae5" stroke-width="0"/>
	<rect x="314" y="187" width="26" height="50" fill="none" rx="14" stroke="#35978f" stroke-width="2"/>
	<line x1="314" y1="212" x2="340" y2="212" stroke="#35978f" stroke-width="1"/>
	<text x="321" y="204.7" fill="#000000" font-family="Verdana" font-size="12">is</text>
</g>

<!-- Association has many -->
<line x1="754" y1="524" x2="754" y2="364" stroke="#35978f" stroke-width="2"/>
<text x="759.0" y="465" fill="#8c510a" font-family="Verdana" font-size="12">1,1</text>
<line x1="598" y1="212" x2="754" y2="364" stroke="#35978f" stroke-width="2"/>
<text x="658" y="264.530885656" fill="#8c510a" font-family="Verdana" font-size="12">1,N</text>
<g id="association-has many">
	<path d="M 777 339 a 14 14 90 0 1 14 14 V 364 h -74 V 353 a 14 14 90 0 1 14 -14" fill="#80cdc1" stroke="#80cdc1" stroke-width="0"/>
	<path d="M 791 364.0 v 11 a 14 14 90 0 1 -14 14 H 731 a 14 14 90 0 1 -14 -14 V 364.0 H 74" fill="#c7eae5" stroke="#c7eae5" stroke-width="0"/>
	<rect x="717" y="339" width="74" height="50" fill="none" rx="14" stroke="#35978f" stroke-width="2"/>
	<line x1="717" y1="364" x2="791" y2="364" stroke="#35978f" stroke-width="1"/>
	<text x="724" y="356.7" fill="#000000" font-family="Verdana" font-size="12">has many</text>
</g>

<!-- Association has in his cart -->
<line x1="466" y1="524" x2="466" y2="364" stroke="#35978f" stroke-width="2"/>
<text x="439.0" y="406" fill="#8c510a" font-family="Verdana" font-size="12">0,N</text>
<line x1="327" y1="364" x2="466" y2="364" stroke="#35978f" stroke-width="2"/>
<text x="372" y="381.0" fill="#8c510a" font-family="Verdana" font-size="12">0,N</text>
<g id="association-has in his cart">
	<path d="M 502 339 a 14 14 90 0 1 14 14 V 364 h -100 V 353 a 14 14 90 0 1 14 -14" fill="#80cdc1" stroke="#80cdc1" stroke-width="0"/>
	<path d="M 516 364.0 v 11 a 14 14 90 0 1 -14 14 H 430 a 14 14 90 0 1 -14 -14 V 364.0 H 100" fill="#c7eae5" stroke="#c7eae5" stroke-width="0"/>
	<rect x="416" y="339" width="100" height="50" fill="none" rx="14" stroke="#35978f" stroke-width="2"/>
	<line x1="416" y1="364" x2="516" y2="364" stroke="#35978f" stroke-width="1"/>
	<text x="423" y="356.7" fill="#000000" font-family="Verdana" font-size="12">has in his cart</text>
</g>

<!-- Association is in favorite -->
<line x1="598" y1="212" x2="466" y2="212" stroke="#35978f" stroke-width="2"/>
<text x="516" y="229.0" fill="#8c510a" font-family="Verdana" font-size="12">0,N</text>
<line x1="327" y1="364" x2="466" y2="212" stroke="#35978f" stroke-width="2"/>
<text x="372" y="330.634278807" fill="#8c510a" font-family="Verdana" font-size="12">0,N</text>
<g id="association-is in favorite">
	<path d="M 497 187 a 14 14 90 0 1 14 14 V 212 h -90 V 201 a 14 14 90 0 1 14 -14" fill="#80cdc1" stroke="#80cdc1" stroke-width="0"/>
	<path d="M 511 212.0 v 11 a 14 14 90 0 1 -14 14 H 435 a 14 14 90 0 1 -14 -14 V 212.0 H 90" fill="#c7eae5" stroke="#c7eae5" stroke-width="0"/>
	<rect x="421" y="187" width="90" height="50" fill="none" rx="14" stroke="#35978f" stroke-width="2"/>
	<line x1="421" y1="212" x2="511" y2="212" stroke="#35978f" stroke-width="1"/>
	<text x="428" y="204.7" fill="#000000" font-family="Verdana" font-size="12">is in favorite</text>
</g>

<!-- Association admin has -->
<line x1="68" y1="524" x2="204" y2="524" stroke="#35978f" stroke-width="2"/>
<text x="113" y="541.0" fill="#8c510a" font-family="Verdana" font-size="12">1,1</text>
<line x1="327" y1="364" x2="204" y2="524" stroke="#35978f" stroke-width="2"/>
<text x="260" y="413.807145204" fill="#8c510a" font-family="Verdana" font-size="12">0,N</text>
<g id="association-admin has">
	<path d="M 229 499 a 14 14 90 0 1 14 14 V 524 h -78 V 513 a 14 14 90 0 1 14 -14" fill="#80cdc1" stroke="#80cdc1" stroke-width="0"/>
	<path d="M 243 524.0 v 11 a 14 14 90 0 1 -14 14 H 179 a 14 14 90 0 1 -14 -14 V 524.0 H 78" fill="#c7eae5" stroke="#c7eae5" stroke-width="0"/>
	<rect x="165" y="499" width="78" height="50" fill="none" rx="14" stroke="#35978f" stroke-width="2"/>
	<line x1="165" y1="524" x2="243" y2="524" stroke="#35978f" stroke-width="1"/>
	<text x="172" y="516.7" fill="#000000" font-family="Verdana" font-size="12">admin has</text>
</g>

<!-- Association has -->
<line x1="598" y1="212" x2="598" y2="77" stroke="#35978f" stroke-width="2"/>
<text x="603.0" y="128" fill="#8c510a" font-family="Verdana" font-size="12">1,1</text>
<line x1="466" y1="77" x2="598" y2="77" stroke="#35978f" stroke-width="2"/>
<text x="532" y="94.0" fill="#8c510a" font-family="Verdana" font-size="12">0,N</text>
<g id="association-has">
	<path d="M 602 52 a 14 14 90 0 1 14 14 V 77 h -36 V 66 a 14 14 90 0 1 14 -14" fill="#80cdc1" stroke="#80cdc1" stroke-width="0"/>
	<path d="M 616 77.0 v 11 a 14 14 90 0 1 -14 14 H 594 a 14 14 90 0 1 -14 -14 V 77.0 H 36" fill="#c7eae5" stroke="#c7eae5" stroke-width="0"/>
	<rect x="580" y="52" width="36" height="50" fill="none" rx="14" stroke="#35978f" stroke-width="2"/>
	<line x1="580" y1="77" x2="616" y2="77" stroke="#35978f" stroke-width="1"/>
	<text x="587" y="69.7" fill="#000000" font-family="Verdana" font-size="12">has</text>
</g>

<!-- Association event -->
<line x1="68" y1="77" x2="204" y2="77" stroke="#35978f" stroke-width="2"/>
<text x="113" y="94.0" fill="#8c510a" font-family="Verdana" font-size="12">1,1</text>
<line x1="204" y1="212" x2="204" y2="77" stroke="#35978f" stroke-width="2"/>
<text x="209.0" y="145" fill="#8c510a" font-family="Verdana" font-size="12">0,N</text>
<g id="association-event">
	<path d="M 215 52 a 14 14 90 0 1 14 14 V 77 h -50 V 66 a 14 14 90 0 1 14 -14" fill="#80cdc1" stroke="#80cdc1" stroke-width="0"/>
	<path d="M 229 77.0 v 11 a 14 14 90 0 1 -14 14 H 193 a 14 14 90 0 1 -14 -14 V 77.0 H 50" fill="#c7eae5" stroke="#c7eae5" stroke-width="0"/>
	<rect x="179" y="52" width="50" height="50" fill="none" rx="14" stroke="#35978f" stroke-width="2"/>
	<line x1="179" y1="77" x2="229" y2="77" stroke="#35978f" stroke-width="1"/>
	<text x="186" y="69.7" fill="#000000" font-family="Verdana" font-size="12">event</text>
</g>

<!-- Entity CITY -->
<g id="entity-CITY">
	<g id="frame-CITY">
		<rect x="159" y="153" width="90" height="25" fill="#dfc27d" stroke="#dfc27d" stroke-width="0"/>
		<rect x="159" y="178.0" width="90" height="93" fill="#f6e8c3" stroke="#f6e8c3" stroke-width="0"/>
		<rect x="159" y="153" width="90" height="118" fill="none" stroke="#bf812d" stroke-width="2"/>
		<line x1="159" y1="178" x2="249" y2="178" stroke="#bf812d" stroke-width="1"/>
	</g>
	<text x="189" y="170.7" fill="#000000" font-family="Verdana" font-size="12">CITY</text>
	<text x="164" y="195.7" fill="#000000" font-family="Verdana" font-size="12">id</text>
	<line x1="164" y1="198" x2="176" y2="198" stroke="#000000" stroke-width="1"/>
	<text x="164" y="212.8" fill="#000000" font-family="Verdana" font-size="12">city</text>
	<text x="164" y="229.8" fill="#000000" font-family="Verdana" font-size="12">departement</text>
	<text x="164" y="246.8" fill="#000000" font-family="Verdana" font-size="12">created_at</text>
	<text x="164" y="263.8" fill="#000000" font-family="Verdana" font-size="12">updated_at</text>
</g>

<!-- Entity PRODUCT -->
<g id="entity-PRODUCT">
	<g id="frame-PRODUCT">
		<rect x="411" y="414" width="110" height="25" fill="#dfc27d" stroke="#dfc27d" stroke-width="0"/>
		<rect x="411" y="439.0" width="110" height="195" fill="#f6e8c3" stroke="#f6e8c3" stroke-width="0"/>
		<rect x="411" y="414" width="110" height="220" fill="none" stroke="#bf812d" stroke-width="2"/>
		<line x1="411" y1="439" x2="521" y2="439" stroke="#bf812d" stroke-width="1"/>
	</g>
	<text x="436" y="431.7" fill="#000000" font-family="Verdana" font-size="12">PRODUCT</text>
	<text x="416" y="456.7" fill="#000000" font-family="Verdana" font-size="12">id</text>
	<line x1="416" y1="459" x2="428" y2="459" stroke="#000000" stroke-width="1"/>
	<text x="416" y="473.7" fill="#000000" font-family="Verdana" font-size="12">marketable</text>
	<text x="416" y="490.7" fill="#000000" font-family="Verdana" font-size="12">title</text>
	<text x="416" y="507.7" fill="#000000" font-family="Verdana" font-size="12">shortDescription</text>
	<text x="416" y="524.8" fill="#000000" font-family="Verdana" font-size="12">description</text>
	<text x="416" y="541.8" fill="#000000" font-family="Verdana" font-size="12">bio</text>
	<text x="416" y="558.8" fill="#000000" font-family="Verdana" font-size="12">price</text>
	<text x="416" y="575.8" fill="#000000" font-family="Verdana" font-size="12">availability</text>
	<text x="416" y="592.8" fill="#000000" font-family="Verdana" font-size="12">image</text>
	<text x="416" y="609.8" fill="#000000" font-family="Verdana" font-size="12">created_at</text>
	<text x="416" y="626.8" fill="#000000" font-family="Verdana" font-size="12">updated_at</text>
</g>

<!-- Entity INDICATIVEPRICE -->
<g id="entity-INDICATIVEPRICE">
	<g id="frame-INDICATIVEPRICE">
		<rect x="405" y="43" width="122" height="25" fill="#dfc27d" stroke="#dfc27d" stroke-width="0"/>
		<rect x="405" y="68.0" width="122" height="43" fill="#f6e8c3" stroke="#f6e8c3" stroke-width="0"/>
		<rect x="405" y="43" width="122" height="68" fill="none" stroke="#bf812d" stroke-width="2"/>
		<line x1="405" y1="68" x2="527" y2="68" stroke="#bf812d" stroke-width="1"/>
	</g>
	<text x="410" y="60.7" fill="#000000" font-family="Verdana" font-size="12">INDICATIVEPRICE</text>
	<text x="410" y="85.8" fill="#000000" font-family="Verdana" font-size="12">id</text>
	<line x1="410" y1="88" x2="422" y2="88" stroke="#000000" stroke-width="1"/>
	<text x="410" y="102.8" fill="#000000" font-family="Verdana" font-size="12">indicativePrice</text>
</g>

<!-- Entity RECIPE -->
<g id="entity-RECIPE">
	<g id="frame-RECIPE">
		<rect x="543" y="136" width="110" height="25" fill="#dfc27d" stroke="#dfc27d" stroke-width="0"/>
		<rect x="543" y="161.0" width="110" height="127" fill="#f6e8c3" stroke="#f6e8c3" stroke-width="0"/>
		<rect x="543" y="136" width="110" height="152" fill="none" stroke="#bf812d" stroke-width="2"/>
		<line x1="543" y1="161" x2="653" y2="161" stroke="#bf812d" stroke-width="1"/>
	</g>
	<text x="575" y="153.7" fill="#000000" font-family="Verdana" font-size="12">RECIPE</text>
	<text x="548" y="178.7" fill="#000000" font-family="Verdana" font-size="12">id</text>
	<line x1="548" y1="181" x2="560" y2="181" stroke="#000000" stroke-width="1"/>
	<text x="548" y="195.7" fill="#000000" font-family="Verdana" font-size="12">title</text>
	<text x="548" y="212.8" fill="#000000" font-family="Verdana" font-size="12">shortDescription</text>
	<text x="548" y="229.8" fill="#000000" font-family="Verdana" font-size="12">description</text>
	<text x="548" y="246.8" fill="#000000" font-family="Verdana" font-size="12">saison</text>
	<text x="548" y="263.8" fill="#000000" font-family="Verdana" font-size="12">created_at</text>
	<text x="548" y="280.8" fill="#000000" font-family="Verdana" font-size="12">updated_at</text>
</g>

<!-- Entity DIFFICULTY -->
<g id="entity-DIFFICULTY">
	<g id="frame-DIFFICULTY">
		<rect x="712" y="43" width="84" height="25" fill="#dfc27d" stroke="#dfc27d" stroke-width="0"/>
		<rect x="712" y="68.0" width="84" height="43" fill="#f6e8c3" stroke="#f6e8c3" stroke-width="0"/>
		<rect x="712" y="43" width="84" height="68" fill="none" stroke="#bf812d" stroke-width="2"/>
		<line x1="712" y1="68" x2="796" y2="68" stroke="#bf812d" stroke-width="1"/>
	</g>
	<text x="717" y="60.7" fill="#000000" font-family="Verdana" font-size="12">DIFFICULTY</text>
	<text x="717" y="85.8" fill="#000000" font-family="Verdana" font-size="12">id</text>
	<line x1="717" y1="88" x2="729" y2="88" stroke="#000000" stroke-width="1"/>
	<text x="717" y="102.8" fill="#000000" font-family="Verdana" font-size="12">level</text>
</g>

<!-- Entity STEP -->
<g id="entity-STEP">
	<g id="frame-STEP">
		<rect x="712" y="473" width="84" height="25" fill="#dfc27d" stroke="#dfc27d" stroke-width="0"/>
		<rect x="712" y="498.0" width="84" height="77" fill="#f6e8c3" stroke="#f6e8c3" stroke-width="0"/>
		<rect x="712" y="473" width="84" height="102" fill="none" stroke="#bf812d" stroke-width="2"/>
		<line x1="712" y1="498" x2="796" y2="498" stroke="#bf812d" stroke-width="1"/>
	</g>
	<text x="738" y="490.7" fill="#000000" font-family="Verdana" font-size="12">STEP</text>
	<text x="717" y="515.7" fill="#000000" font-family="Verdana" font-size="12">id</text>
	<line x1="717" y1="518" x2="729" y2="518" stroke="#000000" stroke-width="1"/>
	<text x="717" y="532.8" fill="#000000" font-family="Verdana" font-size="12">stepContent</text>
	<text x="717" y="549.8" fill="#000000" font-family="Verdana" font-size="12">created_at</text>
	<text x="717" y="566.8" fill="#000000" font-family="Verdana" font-size="12">updated_at</text>
</g>

<!-- Entity ROLE -->
<g id="entity-ROLE">
	<g id="frame-ROLE">
		<rect x="305" y="43" width="44" height="25" fill="#dfc27d" stroke="#dfc27d" stroke-width="0"/>
		<rect x="305" y="68.0" width="44" height="43" fill="#f6e8c3" stroke="#f6e8c3" stroke-width="0"/>
		<rect x="305" y="43" width="44" height="68" fill="none" stroke="#bf812d" stroke-width="2"/>
		<line x1="305" y1="68" x2="349" y2="68" stroke="#bf812d" stroke-width="1"/>
	</g>
	<text x="310" y="60.7" fill="#000000" font-family="Verdana" font-size="12">ROLE</text>
	<text x="310" y="85.8" fill="#000000" font-family="Verdana" font-size="12">id</text>
	<line x1="310" y1="88" x2="322" y2="88" stroke="#000000" stroke-width="1"/>
	<text x="310" y="102.8" fill="#000000" font-family="Verdana" font-size="12">role</text>
</g>

<!-- Entity USER -->
<g id="entity-USER">
	<g id="frame-USER">
		<rect x="287" y="262" width="80" height="25" fill="#dfc27d" stroke="#dfc27d" stroke-width="0"/>
		<rect x="287" y="287.0" width="80" height="179" fill="#f6e8c3" stroke="#f6e8c3" stroke-width="0"/>
		<rect x="287" y="262" width="80" height="204" fill="none" stroke="#bf812d" stroke-width="2"/>
		<line x1="287" y1="287" x2="367" y2="287" stroke="#bf812d" stroke-width="1"/>
	</g>
	<text x="310" y="279.7" fill="#000000" font-family="Verdana" font-size="12">USER</text>
	<text x="292" y="304.7" fill="#000000" font-family="Verdana" font-size="12">id</text>
	<line x1="292" y1="307" x2="304" y2="307" stroke="#000000" stroke-width="1"/>
	<text x="292" y="321.7" fill="#000000" font-family="Verdana" font-size="12">name</text>
	<text x="292" y="338.7" fill="#000000" font-family="Verdana" font-size="12">firstName</text>
	<text x="292" y="355.7" fill="#000000" font-family="Verdana" font-size="12">adress</text>
	<text x="292" y="372.8" fill="#000000" font-family="Verdana" font-size="12">country</text>
	<text x="292" y="389.8" fill="#000000" font-family="Verdana" font-size="12">phone</text>
	<text x="292" y="406.8" fill="#000000" font-family="Verdana" font-size="12">mail</text>
	<text x="292" y="423.8" fill="#000000" font-family="Verdana" font-size="12">mute</text>
	<text x="292" y="440.8" fill="#000000" font-family="Verdana" font-size="12">created_at</text>
	<text x="292" y="457.8" fill="#000000" font-family="Verdana" font-size="12">updated_at</text>
</g>

<!-- Entity MESSAGESTATUS -->
<g id="entity-MESSAGESTATUS">
	<g id="frame-MESSAGESTATUS">
		<rect x="9" y="178" width="118" height="25" fill="#dfc27d" stroke="#dfc27d" stroke-width="0"/>
		<rect x="9" y="203.0" width="118" height="43" fill="#f6e8c3" stroke="#f6e8c3" stroke-width="0"/>
		<rect x="9" y="178" width="118" height="68" fill="none" stroke="#bf812d" stroke-width="2"/>
		<line x1="9" y1="203" x2="127" y2="203" stroke="#bf812d" stroke-width="1"/>
	</g>
	<text x="14" y="195.7" fill="#000000" font-family="Verdana" font-size="12">MESSAGESTATUS</text>
	<text x="14" y="220.8" fill="#000000" font-family="Verdana" font-size="12">id</text>
	<line x1="14" y1="223" x2="26" y2="223" stroke="#000000" stroke-width="1"/>
	<text x="14" y="237.8" fill="#000000" font-family="Verdana" font-size="12">status</text>
</g>

<!-- Entity DATE -->
<g id="entity-DATE">
	<g id="frame-DATE">
		<rect x="28" y="9" width="80" height="25" fill="#dfc27d" stroke="#dfc27d" stroke-width="0"/>
		<rect x="28" y="34.0" width="80" height="111" fill="#f6e8c3" stroke="#f6e8c3" stroke-width="0"/>
		<rect x="28" y="9" width="80" height="136" fill="none" stroke="#bf812d" stroke-width="2"/>
		<line x1="28" y1="34" x2="108" y2="34" stroke="#bf812d" stroke-width="1"/>
	</g>
	<text x="51" y="26.7" fill="#000000" font-family="Verdana" font-size="12">DATE</text>
	<text x="33" y="51.7" fill="#000000" font-family="Verdana" font-size="12">id</text>
	<line x1="33" y1="54" x2="45" y2="54" stroke="#000000" stroke-width="1"/>
	<text x="33" y="68.7" fill="#000000" font-family="Verdana" font-size="12">date</text>
	<text x="33" y="85.8" fill="#000000" font-family="Verdana" font-size="12">startHour</text>
	<text x="33" y="102.8" fill="#000000" font-family="Verdana" font-size="12">endHour</text>
	<text x="33" y="119.8" fill="#000000" font-family="Verdana" font-size="12">created_at</text>
	<text x="33" y="136.8" fill="#000000" font-family="Verdana" font-size="12">updated_at</text>
</g>

<!-- Entity DATAPAGE -->
<g id="entity-DATAPAGE">
	<g id="frame-DATAPAGE">
		<rect x="558" y="448" width="80" height="25" fill="#dfc27d" stroke="#dfc27d" stroke-width="0"/>
		<rect x="558" y="473.0" width="80" height="127" fill="#f6e8c3" stroke="#f6e8c3" stroke-width="0"/>
		<rect x="558" y="448" width="80" height="152" fill="none" stroke="#bf812d" stroke-width="2"/>
		<line x1="558" y1="473" x2="638" y2="473" stroke="#bf812d" stroke-width="1"/>
	</g>
	<text x="565" y="465.7" fill="#000000" font-family="Verdana" font-size="12">DATAPAGE</text>
	<text x="563" y="490.7" fill="#000000" font-family="Verdana" font-size="12">id</text>
	<line x1="563" y1="493" x2="575" y2="493" stroke="#000000" stroke-width="1"/>
	<text x="563" y="507.7" fill="#000000" font-family="Verdana" font-size="12">type</text>
	<text x="563" y="524.8" fill="#000000" font-family="Verdana" font-size="12">title</text>
	<text x="563" y="541.8" fill="#000000" font-family="Verdana" font-size="12">content</text>
	<text x="563" y="558.8" fill="#000000" font-family="Verdana" font-size="12">image</text>
	<text x="563" y="575.8" fill="#000000" font-family="Verdana" font-size="12">created_at</text>
	<text x="563" y="592.8" fill="#000000" font-family="Verdana" font-size="12">updated_at</text>
</g>

<!-- Entity MESSAGE -->
<g id="entity-MESSAGE">
	<g id="frame-MESSAGE">
		<rect x="28" y="465" width="80" height="25" fill="#dfc27d" stroke="#dfc27d" stroke-width="0"/>
		<rect x="28" y="490.0" width="80" height="93" fill="#f6e8c3" stroke="#f6e8c3" stroke-width="0"/>
		<rect x="28" y="465" width="80" height="118" fill="none" stroke="#bf812d" stroke-width="2"/>
		<line x1="28" y1="490" x2="108" y2="490" stroke="#bf812d" stroke-width="1"/>
	</g>
	<text x="38" y="482.7" fill="#000000" font-family="Verdana" font-size="12">MESSAGE</text>
	<text x="33" y="507.7" fill="#000000" font-family="Verdana" font-size="12">id</text>
	<line x1="33" y1="510" x2="45" y2="510" stroke="#000000" stroke-width="1"/>
	<text x="33" y="524.8" fill="#000000" font-family="Verdana" font-size="12">title</text>
	<text x="33" y="541.8" fill="#000000" font-family="Verdana" font-size="12">content</text>
	<text x="33" y="558.8" fill="#000000" font-family="Verdana" font-size="12">created_at</text>
	<text x="33" y="575.8" fill="#000000" font-family="Verdana" font-size="12">updated_at</text>
</g>
</svg>